# xmcd
#
# Track frame offsets: 
#        150
#        16452
#        34790
#        53705
#        71960
#        95467
#        118952
#        141707
#        164240
#        180912
#        200537
#        221722
#        247705
#        266410
#        291477
#        305145
#
# Disc length: 4360 seconds
#
# Revision: 0
# Processed by: cddbd v1.5.2PL0 Copyright (c) Steve Scherf et al.
# Submitted via: ExactAudioCopyFreeDBPlugin 1.0
#
DISCID=02110610
DTITLE=佐藤隆 - ゴールデン☆ベスト 佐藤隆
DYEAR=2004
DGENRE=JPop
TTITLE0=マイ・クラシック
TTITLE1=さよならなんて言えやしない
TTITLE2=カルメン
TTITLE3=名画座
TTITLE4=12番街のキャロル
TTITLE5=8月のメモワール
TTITLE6=否-NON-
TTITLE7=You Are Not Alone
TTITLE8=夏の嵐
TTITLE9=黒い瞳～アモーレ・ミオ～
TTITLE10=一人よりも二人
TTITLE11=失楽園
TTITLE12=デラシネ（アル・マージ）
TTITLE13=エスメラルダ
TTITLE14=帰るとこあるの？
TTITLE15=桃色吐息
EXTD=
EXTT0=
EXTT1=
EXTT2=
EXTT3=
EXTT4=
EXTT5=
EXTT6=
EXTT7=
EXTT8=
EXTT9=
EXTT10=
EXTT11=
EXTT12=
EXTT13=
EXTT14=
EXTT15=
PLAYORDER=
